<svg id="Capa_1" enable-background="new 0 0 512 512" height="512" viewBox="0 0 512 512" width="512" xmlns="http://www.w3.org/2000/svg"><g><path d="m507.606 245.393-40-40c-5.858-5.858-15.355-5.858-21.213 0s-5.858 15.355 0 21.213l14.394 14.394h-53.787c-8.284 0-15 6.716-15 15s6.716 15 15 15h53.787l-14.394 14.394c-5.858 5.858-5.858 15.355 0 21.213s15.355 5.858 21.213 0l40-40c5.859-5.858 5.859-15.356 0-21.214z"/><path d="m377 141h53.787l-14.394 14.394c-5.858 5.858-5.858 15.355 0 21.213s15.355 5.858 21.213 0l40-40c5.858-5.857 5.858-15.355 0-21.213l-40-40c-5.858-5.858-15.355-5.858-21.213 0s-5.858 15.355 0 21.213l14.394 14.393h-53.787c-8.284 0-15 6.716-15 15s6.716 15 15 15z"/><path d="m437.606 335.393c-5.858-5.858-15.355-5.858-21.213 0s-5.858 15.355 0 21.213l14.394 14.394h-53.787c-8.284 0-15 6.716-15 15s6.716 15 15 15h53.787l-14.394 14.394c-5.858 5.858-5.858 15.355 0 21.213s15.355 5.858 21.213 0l40-40c5.858-5.857 5.858-15.355 0-21.213z"/><circle cx="15" cy="176" r="15"/><circle cx="90" cy="121" r="15"/><circle cx="130" cy="211" r="15"/><circle cx="15" cy="336" r="15"/><circle cx="90" cy="391" r="15"/><circle cx="130" cy="301" r="15"/><circle cx="50" cy="256" r="15"/><circle cx="255" cy="256" r="15"/><circle cx="255" cy="121" r="15"/><circle cx="255" cy="391" r="15"/><path d="m310.257.781-120 39.998c-6.126 2.042-10.257 7.774-10.257 14.23v401.982c0 6.456 4.131 12.188 10.257 14.23l120 39.998c9.713 3.238 19.743-3.992 19.743-14.229v-481.979c0-10.238-10.031-17.467-19.743-14.23zm-10.257 475.398-90-29.999v-380.36l90-29.999z"/></g></svg>