<svg id="Capa_1" enable-background="new 0 0 512 512" height="512" viewBox="0 0 512 512" width="512" xmlns="http://www.w3.org/2000/svg"><g><path d="m120 364.58v-49.58c0-8.284-6.716-15-15-15s-15 6.716-15 15v49.58c-17.459 6.192-30 22.865-30 42.42 0 24.813 20.187 45 45 45s45-20.187 45-45c0-19.555-12.541-36.228-30-42.42zm-15 57.42c-8.271 0-15-6.729-15-15s6.729-15 15-15 15 6.729 15 15-6.729 15-15 15z"/><path d="m205 90c8.284 0 15-6.716 15-15s-6.716-15-15-15h-26.509c-6.969-34.192-37.271-60-73.491-60-41.355 0-75 33.645-75 75v258.66c-19.143 19.575-30 45.934-30 73.34 0 57.897 47.103 105 105 105s105-47.103 105-105c0-27.406-10.857-53.765-30-73.34v-3.66h25c8.284 0 15-6.716 15-15s-6.716-15-15-15h-25v-30h25c8.284 0 15-6.716 15-15s-6.716-15-15-15h-25v-30h25c8.284 0 15-6.716 15-15s-6.716-15-15-15h-25v-30h25c8.284 0 15-6.716 15-15s-6.716-15-15-15h-25v-30zm-100 392c-41.355 0-75-33.645-75-75 0-21.192 9.117-41.523 25.015-55.78 3.173-2.845 4.985-6.905 4.985-11.167v-265.053c0-24.813 20.187-45 45-45s45 20.187 45 45v265.053c0 4.262 1.812 8.322 4.985 11.167 15.898 14.257 25.015 34.588 25.015 55.78 0 41.355-33.645 75-75 75z"/><path d="m497 120h-13.787l9.394-9.394c5.858-5.858 5.858-15.355 0-21.213s-15.355-5.858-21.213 0l-30.607 30.607h-27.574l19.394-19.394c5.858-5.858 5.858-15.355 0-21.213s-15.355-5.858-21.213 0l-19.394 19.394v-27.574l30.606-30.606c5.858-5.858 5.858-15.355 0-21.213s-15.355-5.858-21.213 0l-9.393 9.393v-13.787c0-8.284-6.716-15-15-15s-15 6.716-15 15v13.787l-9.394-9.394c-5.858-5.858-15.355-5.858-21.213 0s-5.858 15.355 0 21.213l30.607 30.607v27.574l-19.394-19.394c-5.858-5.858-15.355-5.858-21.213 0s-5.858 15.355 0 21.213l19.394 19.394h-27.574l-30.606-30.606c-5.858-5.858-15.355-5.858-21.213 0s-5.858 15.355 0 21.213l9.394 9.394h-13.788c-8.284 0-15 6.716-15 15s6.716 15 15 15h13.787l-9.394 9.394c-5.858 5.858-5.858 15.355 0 21.213s15.355 5.858 21.213 0l30.607-30.608h27.574l-19.394 19.394c-5.858 5.858-5.858 15.355 0 21.213s15.355 5.858 21.213 0l19.394-19.394v27.574l-30.606 30.606c-5.858 5.858-5.858 15.355 0 21.213s15.355 5.858 21.213 0l9.394-9.394v13.788c0 8.284 6.716 15 15 15s15-6.716 15-15v-13.787l9.394 9.394c5.858 5.858 15.355 5.858 21.213 0s5.858-15.355 0-21.213l-30.608-30.607v-27.574l19.394 19.394c5.858 5.858 15.355 5.858 21.213 0s5.858-15.355 0-21.213l-19.394-19.394h27.574l30.606 30.606c5.858 5.858 15.355 5.858 21.213 0s5.858-15.355 0-21.213l-9.393-9.393h13.787c8.284 0 15-6.716 15-15s-6.716-15-15-15z"/></g></svg>